# Blender v2.79 (sub 0) OBJ File: ''
# www.blender.org
mtllib aleron_2.mtl
o body.001
v -25.789900 72.881874 128.129211
v -25.934200 72.891678 125.933914
v 1.350700 72.252380 124.137512
v 1.495000 72.242577 126.332817
v -120.204498 76.894478 134.353317
v -118.419899 75.052177 134.227814
v -91.135002 74.412880 132.431412
v -89.327797 76.171074 132.320419
v -27.574499 74.724174 128.254715
v 3.302200 74.000778 126.221817
v -118.564201 75.061974 132.032516
v -91.279297 74.422676 130.236115
v -26.960899 84.176575 122.277412
v -24.969601 86.491074 137.252213
v 5.907100 85.767578 135.219315
v -28.752001 79.109886 108.808815
v 3.842700 83.310677 119.695816
v 2.124600 78.386383 106.775917
v -119.599701 86.378174 128.309814
v -117.599602 88.661278 143.350815
v -86.722900 87.937874 141.317917
v -121.382004 81.280182 114.907417
v -88.684700 85.729675 126.565712
v -90.505302 80.556686 112.874512
v -57.807999 83.386177 124.532814
v -55.846298 87.214478 139.285110
v -59.628700 79.833282 110.841614
v -28.843300 76.443184 108.802917
v 2.023100 74.087685 106.763412
v -121.483498 76.981384 114.894814
v -90.596603 77.890083 112.868614
v -59.720001 77.166687 110.835716
v -58.302200 75.447578 130.573608
vt 0.767400 0.965100
vt 0.767400 0.965100
vt 0.982700 0.965300
vt 0.982700 0.965300
vt 0.000000 1.000000
vt 0.017200 0.965500
vt 0.232800 0.965700
vt 0.250000 1.000000
vt 0.750000 1.000000
vt 1.000000 1.000000
vt 0.017200 0.965500
vt 0.232800 0.965700
vt 0.250000 0.964400
vt 0.250000 1.000000
vt 0.000000 1.000000
vt 0.250000 0.932400
vt 0.000000 0.963100
vt 0.000000 0.932400
vt 1.000000 0.964300
vt 1.000000 1.000000
vt 0.750000 1.000000
vt 1.000000 0.932400
vt 0.750000 0.964900
vt 0.750000 0.932400
vt 0.500000 0.964900
vt 0.500000 1.000000
vt 0.500000 0.932400
vt 0.250000 0.932400
vt 0.000000 0.932400
vt 0.000000 1.000000
vt 0.250000 1.000000
vt 1.000000 0.932400
vt 0.750000 0.932400
vt 1.000000 1.000000
vt 0.750000 1.000000
vt 0.500000 0.932400
vt 0.500000 1.000000
vn -0.0196 -0.9997 -0.0135
vn -0.4026 -0.0045 0.9154
vn 0.1370 0.9569 -0.2561
vn 0.0061 0.9677 -0.2519
vn -0.0183 0.9684 -0.2489
vn 0.0312 0.9665 -0.2549
vn 0.4026 0.0045 -0.9154
vn -0.3797 -0.3851 0.8412
vn 0.9146 -0.0158 0.4040
vn 0.9902 -0.1049 -0.0917
vn -0.9146 0.0158 -0.4040
vn -0.9903 0.1045 0.0918
vn 0.0344 -0.6056 0.7950
usemtl car_body.001
s 1
f 1/1/1 2/2/1 3/3/1 4/4/1
f 5/5/2 6/6/2 7/7/2 8/8/2
f 9/9/2 1/1/2 4/4/2 10/10/2
f 6/6/1 11/11/1 12/12/1 7/7/1
f 13/13/3 14/14/3 15/15/3 16/16/3
f 16/16/3 15/15/3 17/17/4 18/18/4
f 19/19/3 20/20/3 21/21/3 22/22/3
f 22/22/3 21/21/3 23/23/4 24/24/4
f 25/25/3 26/26/3 14/14/3 27/27/3
f 27/27/3 14/14/3 13/13/5 16/16/5
f 23/23/3 21/21/3 26/26/3 24/24/3
f 24/24/3 26/26/3 25/25/6 27/27/6
f 28/28/7 16/16/7 18/18/7 29/29/7
f 10/30/8 15/15/8 14/14/8 9/31/8
f 29/29/9 18/18/9 17/17/9 15/15/9
f 29/29/9 15/15/9 10/30/10
f 30/32/7 22/22/7 24/24/7 31/33/7
f 5/34/11 20/20/11 19/19/11 22/22/11
f 5/34/11 22/22/11 30/32/12
f 8/35/8 21/21/8 20/20/8 5/34/8
f 32/36/7 27/27/7 16/16/7 28/28/7
f 9/31/8 14/14/8 26/26/8 33/37/8
f 31/33/7 24/24/7 27/27/7 32/36/7
f 33/37/8 21/21/8 8/35/13
