# Blender v2.79 (sub 0) OBJ File: ''
# www.blender.org
mtllib aleron_1.mtl
o body
v -31.023199 -30.910852 -16.782995
v -30.137501 -30.901047 -18.796896
v -5.106102 -31.540346 -7.791494
v -5.991699 -31.550152 -5.777685
v -117.643898 -26.898241 -54.857990
v -116.002998 -28.740541 -54.145290
v -90.971497 -29.379841 -43.139889
v -89.317299 -27.621647 -42.403889
v -32.664101 -29.068552 -17.495686
v -4.337502 -29.791950 -5.041585
v -115.117302 -28.730745 -56.159084
v -90.085899 -29.370045 -45.153790
v -24.729401 -24.682844 -35.288189
v -34.508099 -17.301653 -12.941485
v -6.181499 -18.025150 -0.487384
v 3.597198 -25.406349 -22.834095
v -109.709297 -22.512543 -72.650383
v -119.487900 -15.131441 -50.303684
v -91.161301 -15.854848 -37.849590
v -81.382599 -23.236040 -60.196384
v -53.056000 -23.959446 -47.742290
v -62.834702 -16.578247 -25.395479
v -24.807701 -27.349546 -35.335590
v 3.512901 -29.705048 -22.892096
v -109.793503 -26.811340 -72.708389
v -81.460899 -25.902643 -60.243687
v -53.134300 -26.626041 -47.789684
v -60.990700 -28.345144 -29.949787
vt 0.767400 0.965100
vt 0.767400 0.965100
vt 0.982700 0.965300
vt 0.982700 0.965300
vt 0.000000 1.000000
vt 0.017200 0.965500
vt 0.232800 0.965700
vt 0.250000 1.000000
vt 0.750000 1.000000
vt 1.000000 1.000000
vt 0.017200 0.965500
vt 0.232800 0.965700
vt 0.250000 0.932400
vt 0.250000 1.000000
vt 0.000000 1.000000
vt 0.000000 0.932400
vt 1.000000 0.932400
vt 1.000000 1.000000
vt 0.750000 1.000000
vt 0.750000 0.932400
vt 0.500000 0.932400
vt 0.500000 1.000000
vt 0.250000 0.932400
vt 0.000000 0.932400
vt 0.000000 1.000000
vt 0.250000 1.000000
vt 1.000000 0.932400
vt 0.750000 0.932400
vt 1.000000 1.000000
vt 0.750000 1.000000
vt 0.500000 0.932400
vt 0.500000 1.000000
vn -0.0196 -0.9997 -0.0135
vn -0.4026 -0.0044 0.9154
vn -0.4026 -0.0045 0.9154
vn 0.1370 0.9569 -0.2561
vn 0.4026 0.0045 -0.9154
vn -0.3797 -0.3851 0.8412
vn 0.9146 -0.0158 0.4040
vn 0.4026 0.0044 -0.9154
vn -0.9146 0.0158 -0.4040
usemtl car_body
s 1
f 1/1/1 2/2/1 3/3/1 4/4/1
f 5/5/2 6/6/2 7/7/2 8/8/2
f 9/9/3 1/1/3 4/4/3 10/10/3
f 6/6/1 11/11/1 12/12/1 7/7/1
f 13/13/4 14/14/4 15/15/4 16/16/4
f 17/17/4 18/18/4 19/19/4 20/20/4
f 21/21/4 22/22/4 14/14/4 13/13/4
f 20/20/4 19/19/4 22/22/4 21/21/4
f 23/23/5 13/13/5 16/16/5 24/24/5
f 10/25/6 15/15/6 14/14/6 9/26/6
f 24/24/7 16/16/7 15/15/7 10/25/7
f 25/27/8 17/17/8 20/20/8 26/28/8
f 5/29/9 18/18/9 17/17/9 25/27/9
f 8/30/6 19/19/6 18/18/6 5/29/6
f 27/31/8 21/21/8 13/13/5 23/23/5
f 9/26/6 14/14/6 22/22/6 28/32/6
f 26/28/8 20/20/8 21/21/8 27/31/8
f 28/32/6 22/22/6 19/19/6 8/30/6
