# 3ds Max Wavefront OBJ Exporter v0.97b - (c)2007 guruware
# File Created: 31.05.2018 17:28:34

mtllib llanta_version2.mtl

#
# object wheel1_1
#

v  -54.9535 29.1834 -49.4742
v  -54.4743 29.7593 -50.5552
v  -53.2378 29.0705 -53.3773
v  -52.9115 28.0459 -54.1346
v  -56.4898 36.1644 -54.7747
v  -52.8682 39.7606 -54.0585
v  -56.5824 32.4158 -45.7218
v  -56.0530 32.4217 -46.9257
v  -55.0665 30.4643 -49.1980
v  -57.0820 36.8694 -53.4175
v  -57.4757 37.1030 -43.6206
v  -57.0008 36.5376 -44.7090
v  -56.4599 33.6993 -45.9814
v  -57.4889 38.1470 -52.4732
v  -57.4564 42.3165 -43.5868
v  -57.1301 41.2919 -44.3441
v  -57.1418 38.1348 -44.3646
v  -57.6299 39.7442 -52.1287
v  -56.5284 47.0238 -45.6270
v  -56.4153 45.7429 -45.9032
v  -56.9773 42.8924 -44.6677
v  -57.4771 41.3447 -52.4524
v  -54.8754 50.2925 -49.3372
v  -54.9980 49.0091 -49.0776
v  -55.9990 47.0297 -46.8309
v  -57.0607 42.6314 -53.3801
v  -52.8249 51.4753 -53.9824
v  -53.1588 50.4434 -53.2385
v  -54.4005 49.7272 -50.4255
v  -56.4633 43.3495 -54.7280
v  -50.7830 50.3378 -58.6428
v  -51.2621 49.7619 -57.5619
v  -52.4986 50.4507 -54.7397
v  -55.8031 43.3568 -56.2292
v  -49.1540 47.1054 -62.3952
v  -49.6835 47.0996 -61.1913
v  -50.6699 49.0570 -58.9190
v  -55.2109 42.6519 -57.5864
v  -48.2607 42.4183 -64.4964
v  -48.7356 42.9836 -63.4080
v  -49.2766 45.8219 -62.1356
v  -54.8040 41.3743 -58.5307
v  -48.2800 37.2048 -64.5302
v  -48.6063 38.2293 -63.7730
v  -48.5946 41.3864 -63.7525
v  -54.6630 39.7770 -58.8752
v  -49.2080 32.4975 -62.4900
v  -49.3211 33.7783 -62.2138
v  -48.7591 36.6289 -63.4493
v  -54.8158 38.1766 -58.5515
v  -50.8610 29.2287 -58.7799
v  -50.7384 30.5122 -59.0394
v  -49.7375 32.4916 -61.2862
v  -55.2322 36.8899 -57.6238
v  -52.5776 29.0778 -54.8785
v  -51.3359 29.7941 -57.6915
v  -55.8296 36.1717 -56.2759
v  -53.5700 29.7534 -50.1575
v  -52.3335 29.0646 -52.9796
v  -52.3073 36.1585 -52.9335
v  -55.1486 32.4158 -46.5280
v  -54.1622 30.4584 -48.8003
v  -52.8995 36.8635 -51.5764
v  -56.0965 36.5317 -44.3113
v  -55.5555 33.6934 -45.5837
v  -53.3064 38.1411 -50.6320
v  -56.2258 41.2860 -43.9464
v  -56.2375 38.1289 -43.9669
v  -53.4474 39.7383 -50.2876
v  -55.5110 45.7370 -45.5055
v  -56.0730 42.8865 -44.2701
v  -53.2945 41.3387 -50.6113
v  -54.0937 49.0031 -48.6799
v  -55.0946 47.0237 -46.4332
v  -52.8782 42.6255 -51.5390
v  -52.2545 50.4375 -52.8408
v  -53.4962 49.7213 -50.0278
v  -52.2807 43.3436 -52.8869
v  -50.3577 49.7560 -57.1642
v  -51.5943 50.4448 -54.3420
v  -51.6205 43.3509 -54.3881
v  -48.7791 47.0936 -60.7936
v  -49.7655 49.0510 -58.5213
v  -51.0283 42.6459 -55.7453
v  -47.8313 42.9777 -63.0103
v  -48.3722 45.8160 -61.7379
v  -50.6214 41.3683 -56.6896
v  -47.7020 38.2234 -63.3753
v  -47.6903 41.3805 -63.3548
v  -50.4804 39.7711 -57.0340
v  -48.4167 33.7724 -61.8161
v  -47.8548 36.6229 -63.0516
v  -50.6332 38.1707 -56.7104
v  -49.8341 30.5063 -58.6417
v  -48.8331 32.4857 -60.8885
v  -51.0496 36.8839 -55.7827
v  -51.6733 29.0719 -54.4808
v  -50.4316 29.7881 -57.2938
v  -51.6470 36.1658 -54.4348
v  -44.7925 26.8913 -43.8499
v  -42.3214 25.5149 -49.4895
v  -42.2690 39.6912 -49.3975
v  -57.1340 26.9722 -49.2771
v  -54.6630 25.5957 -54.9168
v  -46.7637 30.8030 -39.3090
v  -59.1052 30.8839 -44.7362
v  -47.8447 36.4751 -36.7663
v  -60.1862 36.5559 -42.1935
v  -47.8214 42.7841 -36.7253
v  -60.1629 42.8650 -42.1525
v  -46.6984 48.4806 -39.1942
v  -59.0399 48.5615 -44.6214
v  -44.6980 52.4362 -43.6840
v  -57.0396 52.5171 -49.1112
v  -42.2166 53.8675 -49.3054
v  -54.5581 53.9484 -54.7327
v  -39.7456 52.4910 -54.9451
v  -52.0871 52.5719 -60.3723
v  -37.7744 48.5794 -59.4860
v  -50.1159 48.6602 -64.9132
v  -36.6933 42.9073 -62.0287
v  -49.0349 42.9882 -67.4559
v  -36.7167 36.5982 -62.0697
v  -49.0582 36.6791 -67.4969
v  -37.8397 30.9018 -59.6008
v  -50.1812 30.9826 -65.0280
v  -39.8400 26.9462 -55.1110
v  -52.1815 27.0270 -60.5382
v  -56.6958 29.1948 -50.2404
v  -54.6539 28.0574 -54.9008
v  -58.3247 32.4273 -46.4880
v  -59.2180 37.1144 -44.3868
v  -59.1988 42.3279 -44.3530
v  -58.2707 47.0352 -46.3932
v  -56.6178 50.3040 -50.1034
v  -54.5672 51.4867 -54.7486
v  -52.5253 50.3493 -59.4090
v  -50.8963 47.1168 -63.1614
v  -50.0031 42.4297 -65.2626
v  -50.0223 37.2162 -65.2964
v  -50.9503 32.5089 -63.2562
v  -52.6033 29.2401 -59.5461
# 142 vertices

vn -0.9154 0.0060 -0.4025
vn 0.0932 0.9759 -0.1974
vn 0.3611 -0.4299 -0.8275
vn -0.4026 -0.0045 0.9154
vn 0.2539 0.7846 -0.5657
vn 0.2481 -0.7790 -0.5758
vn -0.3611 0.4299 0.8275
vn 0.3643 0.4379 -0.8219
vn 0.0860 -0.9739 -0.2100
vn -0.2481 0.7790 0.5758
vn 0.4026 0.0045 -0.9154
vn -0.0932 -0.9759 0.1974
vn -0.0860 0.9739 0.2100
vn -0.2539 -0.7846 0.5657
vn -0.3643 -0.4379 0.8219
vn 0.9154 -0.0060 0.4025
# 16 vertex normals

vt 0.8957 0.6576 0.0000
vt 0.8624 0.6317 0.0000
vt 0.8836 0.5386 0.0000
vt 0.9249 0.5297 0.0000
vt 0.6324 0.5302 0.0000
vt 0.5000 0.5000 0.0000
vt 0.7881 0.8137 0.0000
vt 0.7694 0.7759 0.0000
vt 0.8289 0.7012 0.0000
vt 0.8699 0.7111 0.0000
vt 0.6062 0.5847 0.0000
vt 0.6235 0.9076 0.0000
vt 0.6230 0.8654 0.0000
vt 0.7090 0.8240 0.0000
vt 0.7417 0.8507 0.0000
vt 0.5589 0.6223 0.0000
vt 0.4344 0.9208 0.0000
vt 0.4523 0.8826 0.0000
vt 0.5477 0.8826 0.0000
vt 0.5656 0.9208 0.0000
vt 0.5000 0.6358 0.0000
vt 0.2583 0.8507 0.0000
vt 0.2910 0.8240 0.0000
vt 0.3770 0.8654 0.0000
vt 0.3765 0.9076 0.0000
vt 0.4411 0.6223 0.0000
vt 0.1301 0.7111 0.0000
vt 0.1711 0.7012 0.0000
vt 0.2306 0.7759 0.0000
vt 0.2119 0.8137 0.0000
vt 0.3938 0.5847 0.0000
vt 0.0751 0.5297 0.0000
vt 0.1164 0.5386 0.0000
vt 0.1376 0.6317 0.0000
vt 0.1043 0.6576 0.0000
vt 0.3676 0.5302 0.0000
vt 0.1043 0.3424 0.0000
vt 0.1376 0.3683 0.0000
vt 0.1164 0.4614 0.0000
vt 0.0751 0.4703 0.0000
vt 0.3676 0.4698 0.0000
vt 0.2119 0.1863 0.0000
vt 0.2306 0.2241 0.0000
vt 0.1711 0.2988 0.0000
vt 0.1301 0.2889 0.0000
vt 0.3938 0.4153 0.0000
vt 0.3765 0.0924 0.0000
vt 0.3770 0.1346 0.0000
vt 0.2910 0.1760 0.0000
vt 0.2583 0.1493 0.0000
vt 0.4411 0.3777 0.0000
vt 0.5656 0.0792 0.0000
vt 0.5477 0.1174 0.0000
vt 0.4523 0.1174 0.0000
vt 0.4344 0.0792 0.0000
vt 0.5000 0.3642 0.0000
vt 0.7417 0.1493 0.0000
vt 0.7090 0.1760 0.0000
vt 0.6230 0.1346 0.0000
vt 0.6235 0.0924 0.0000
vt 0.5589 0.3777 0.0000
vt 0.8699 0.2889 0.0000
vt 0.8289 0.2988 0.0000
vt 0.7694 0.2241 0.0000
vt 0.7881 0.1863 0.0000
vt 0.6062 0.4153 0.0000
vt 0.9249 0.4703 0.0000
vt 0.8836 0.4614 0.0000
vt 0.8624 0.3683 0.0000
vt 0.8957 0.3424 0.0000
vt 0.6324 0.4698 0.0000
vt 0.0495 0.7169 0.0000
vt 0.0000 0.5000 0.0000
vt 0.0714 0.0000 0.0000
vt 0.0714 1.0000 0.0000
vt 0.0000 1.0000 0.0000
vt 0.0000 0.0000 0.0000
vt 0.1883 0.8909 0.0000
vt 0.1429 0.0000 0.0000
vt 0.1429 1.0000 0.0000
vt 0.3887 0.9875 0.0000
vt 0.2143 0.0000 0.0000
vt 0.2143 1.0000 0.0000
vt 0.6113 0.9875 0.0000
vt 0.2857 0.0000 0.0000
vt 0.2857 1.0000 0.0000
vt 0.8117 0.8909 0.0000
vt 0.3571 0.0000 0.0000
vt 0.3571 1.0000 0.0000
vt 0.9505 0.7169 0.0000
vt 0.4286 0.0000 0.0000
vt 0.4286 1.0000 0.0000
vt 1.0000 0.5000 0.0000
vt 0.5000 0.0000 0.0000
vt 0.5000 1.0000 0.0000
vt 0.9505 0.2831 0.0000
vt 0.5714 0.0000 0.0000
vt 0.5714 1.0000 0.0000
vt 0.8117 0.1091 0.0000
vt 0.6429 0.0000 0.0000
vt 0.6429 1.0000 0.0000
vt 0.6113 0.0125 0.0000
vt 0.7143 0.0000 0.0000
vt 0.7143 1.0000 0.0000
vt 0.3887 0.0125 0.0000
vt 0.7857 0.0000 0.0000
vt 0.7857 1.0000 0.0000
vt 0.1883 0.1091 0.0000
vt 0.8571 0.0000 0.0000
vt 0.8571 1.0000 0.0000
vt 0.0495 0.2831 0.0000
vt 0.9286 0.0000 0.0000
vt 0.9286 1.0000 0.0000
vt 1.0000 0.0000 0.0000
vt 1.0000 1.0000 0.0000
# 115 texture coords

g wheel1_1
usemtl car_body
s off
f 1/1/1 2/2/1 3/3/1 4/4/1 
usemtl 01___Default
f 4/4/1 3/3/1 5/5/1 6/6/1 
f 6/6/1 5/5/1 2/2/1 1/1/1 
usemtl car_body
f 7/7/1 8/8/1 9/9/1 1/10/1 
usemtl 01___Default
f 1/10/1 9/9/1 10/11/1 6/6/1 
f 6/6/1 10/11/1 8/8/1 7/7/1 
usemtl car_body
f 11/12/1 12/13/1 13/14/1 7/15/1 
usemtl 01___Default
f 7/15/1 13/14/1 14/16/1 6/6/1 
f 6/6/1 14/16/1 12/13/1 11/12/1 
usemtl car_body
f 15/17/1 16/18/1 17/19/1 11/20/1 
usemtl 01___Default
f 11/20/1 17/19/1 18/21/1 6/6/1 
f 6/6/1 18/21/1 16/18/1 15/17/1 
usemtl car_body
f 19/22/1 20/23/1 21/24/1 15/25/1 
usemtl 01___Default
f 15/25/1 21/24/1 22/26/1 6/6/1 
f 6/6/1 22/26/1 20/23/1 19/22/1 
f 23/27/1 24/28/1 25/29/1 19/30/1 
f 19/30/1 25/29/1 26/31/1 6/6/1 
f 6/6/1 26/31/1 24/28/1 23/27/1 
usemtl car_body
f 27/32/1 28/33/1 29/34/1 23/35/1 
usemtl 01___Default
f 23/35/1 29/34/1 30/36/1 6/6/1 
f 6/6/1 30/36/1 28/33/1 27/32/1 
usemtl car_body
f 31/37/1 32/38/1 33/39/1 27/40/1 
usemtl 01___Default
f 27/40/1 33/39/1 34/41/1 6/6/1 
f 6/6/1 34/41/1 32/38/1 31/37/1 
usemtl car_body
f 35/42/1 36/43/1 37/44/1 31/45/1 
usemtl 01___Default
f 31/45/1 37/44/1 38/46/1 6/6/1 
f 6/6/1 38/46/1 36/43/1 35/42/1 
usemtl car_body
f 39/47/1 40/48/1 41/49/1 35/50/1 
usemtl 01___Default
f 35/50/1 41/49/1 42/51/1 6/6/1 
f 6/6/1 42/51/1 40/48/1 39/47/1 
usemtl car_body
f 43/52/1 44/53/1 45/54/1 39/55/1 
usemtl 01___Default
f 39/55/1 45/54/1 46/56/1 6/6/1 
f 6/6/1 46/56/1 44/53/1 43/52/1 
usemtl car_body
f 47/57/1 48/58/1 49/59/1 43/60/1 
usemtl 01___Default
f 43/60/1 49/59/1 50/61/1 6/6/1 
f 6/6/1 50/61/1 48/58/1 47/57/1 
usemtl car_body
f 51/62/1 52/63/1 53/64/1 47/65/1 
usemtl 01___Default
f 47/65/1 53/64/1 54/66/1 6/6/1 
f 6/6/1 54/66/1 52/63/1 51/62/1 
usemtl car_body
f 4/67/1 55/68/1 56/69/1 51/70/1 
usemtl 01___Default
f 51/70/1 56/69/1 57/71/1 6/6/1 
f 6/6/1 57/71/1 55/68/1 4/67/1 
usemtl car_body
f 2/2/2 58/2/2 59/3/2 3/3/2 
usemtl 01___Default
f 5/5/3 60/5/3 58/2/3 2/2/3 
f 3/3/4 59/3/4 60/5/4 5/5/4 
usemtl car_body
f 8/8/5 61/8/5 62/9/5 9/9/5 
usemtl 01___Default
f 10/11/6 63/11/6 61/8/6 8/8/6 
f 9/9/7 62/9/7 63/11/7 10/11/7 
usemtl car_body
f 12/13/8 64/13/8 65/14/8 13/14/8 
f 14/16/9 66/16/9 64/13/9 12/13/9 
usemtl 01___Default
f 13/14/10 65/14/10 66/16/10 14/16/10 
usemtl car_body
f 16/18/11 67/18/11 68/19/11 17/19/11 
usemtl 01___Default
f 18/21/12 69/21/12 67/18/12 16/18/12 
f 17/19/13 68/19/13 69/21/13 18/21/13 
usemtl car_body
f 20/23/3 70/23/3 71/24/3 21/24/3 
usemtl 01___Default
f 22/26/14 72/26/14 70/23/14 20/23/14 
f 21/24/2 71/24/2 72/26/2 22/26/2 
f 24/28/6 73/28/6 74/29/6 25/29/6 
f 26/31/15 75/31/15 73/28/15 24/28/15 
f 25/29/5 74/29/5 75/31/5 26/31/5 
usemtl car_body
f 28/33/9 76/33/9 77/34/9 29/34/9 
usemtl 01___Default
f 30/36/4 78/36/4 76/33/4 28/33/4 
f 29/34/8 77/34/8 78/36/8 30/36/8 
usemtl car_body
f 32/38/12 79/38/12 80/39/12 33/39/12 
usemtl 01___Default
f 34/41/7 81/41/7 79/38/7 32/38/7 
f 33/39/11 80/39/11 81/41/11 34/41/11 
usemtl car_body
f 36/43/14 82/43/14 83/44/14 37/44/14 
usemtl 01___Default
f 38/46/10 84/46/10 82/43/10 36/43/10 
f 37/44/3 83/44/3 84/46/3 38/46/3 
usemtl car_body
f 40/48/15 85/48/15 86/49/15 41/49/15 
usemtl 01___Default
f 42/51/13 87/51/13 85/48/13 40/48/13 
f 41/49/6 86/49/6 87/51/6 42/51/6 
usemtl car_body
f 44/53/4 88/53/4 89/54/4 45/54/4 
usemtl 01___Default
f 46/56/2 90/56/2 88/53/2 44/53/2 
f 45/54/9 89/54/9 90/56/9 46/56/9 
usemtl car_body
f 48/58/7 91/58/7 92/59/7 49/59/7 
usemtl 01___Default
f 50/61/5 93/61/5 91/58/5 48/58/5 
usemtl car_body
f 49/59/12 92/59/12 93/61/12 50/61/12 
f 52/63/10 94/63/10 95/64/10 53/64/10 
usemtl 01___Default
f 54/66/8 96/66/8 94/63/8 52/63/8 
f 53/64/14 95/64/14 96/66/14 54/66/14 
usemtl car_body
f 55/68/13 97/68/13 98/69/13 56/69/13 
usemtl 01___Default
f 57/71/11 99/71/11 97/68/11 55/68/11 
f 56/69/15 98/69/15 99/71/15 57/71/15 
f 100/72/16 101/73/16 102/6/16 
usemtl wheels
f 100/74/12 103/75/12 104/76/12 101/77/12 
usemtl 01___Default
f 105/78/16 100/72/16 102/6/16 
usemtl wheels
f 105/79/14 106/80/14 103/75/14 100/74/14 
usemtl 01___Default
f 107/81/16 105/78/16 102/6/16 
usemtl wheels
f 107/82/15 108/83/15 106/80/15 105/79/15 
usemtl 01___Default
f 109/84/16 107/81/16 102/6/16 
usemtl wheels
f 109/85/4 110/86/4 108/83/4 107/82/4 
usemtl 01___Default
f 111/87/16 109/84/16 102/6/16 
usemtl wheels
f 111/88/7 112/89/7 110/86/7 109/85/7 
usemtl 01___Default
f 113/90/16 111/87/16 102/6/16 
usemtl wheels
f 113/91/10 114/92/10 112/89/10 111/88/10 
usemtl 01___Default
f 115/93/16 113/90/16 102/6/16 
usemtl wheels
f 115/94/13 116/95/13 114/92/13 113/91/13 
usemtl 01___Default
f 117/96/16 115/93/16 102/6/16 
usemtl wheels
f 117/97/2 118/98/2 116/95/2 115/94/2 
usemtl 01___Default
f 119/99/16 117/96/16 102/6/16 
usemtl wheels
f 119/100/5 120/101/5 118/98/5 117/97/5 
usemtl 01___Default
f 121/102/16 119/99/16 102/6/16 
usemtl wheels
f 121/103/8 122/104/8 120/101/8 119/100/8 
usemtl 01___Default
f 123/105/16 121/102/16 102/6/16 
usemtl wheels
f 123/106/11 124/107/11 122/104/11 121/103/11 
usemtl 01___Default
f 125/108/16 123/105/16 102/6/16 
usemtl wheels
f 125/109/3 126/110/3 124/107/3 123/106/3 
usemtl 01___Default
f 127/111/16 125/108/16 102/6/16 
usemtl wheels
f 127/112/6 128/113/6 126/110/6 125/109/6 
usemtl 01___Default
f 101/73/16 127/111/16 102/6/16 
usemtl wheels
f 101/114/9 104/115/9 128/113/9 127/112/9 
f 103/90/1 129/1/1 130/4/1 104/93/1 
f 106/87/1 131/7/1 129/10/1 103/90/1 
f 108/84/1 132/12/1 131/15/1 106/87/1 
f 110/81/1 133/17/1 132/20/1 108/84/1 
f 112/78/1 134/22/1 133/25/1 110/81/1 
f 114/72/1 135/27/1 134/30/1 112/78/1 
f 116/73/1 136/32/1 135/35/1 114/72/1 
f 118/111/1 137/37/1 136/40/1 116/73/1 
f 120/108/1 138/42/1 137/45/1 118/111/1 
f 122/105/1 139/47/1 138/50/1 120/108/1 
f 124/102/1 140/52/1 139/55/1 122/105/1 
f 126/99/1 141/57/1 140/60/1 124/102/1 
f 128/96/1 142/62/1 141/65/1 126/99/1 
f 104/93/1 130/67/1 142/70/1 128/96/1 
f 129/1/2 1/1/2 4/4/2 130/4/2 
f 131/7/5 7/7/5 1/10/5 129/10/5 
f 132/12/8 11/12/8 7/15/8 131/15/8 
f 133/17/11 15/17/11 11/20/11 132/20/11 
f 134/22/3 19/22/3 15/25/3 133/25/3 
usemtl 01___Default
f 135/27/6 23/27/6 19/30/6 134/30/6 
usemtl wheels
f 136/32/9 27/32/9 23/35/9 135/35/9 
f 137/37/12 31/37/12 27/40/12 136/40/12 
f 138/42/14 35/42/14 31/45/14 137/45/14 
f 139/47/15 39/47/15 35/50/15 138/50/15 
f 140/52/4 43/52/4 39/55/4 139/55/4 
f 141/57/7 47/57/7 43/60/7 140/60/7 
f 142/62/10 51/62/10 47/65/10 141/65/10 
f 130/67/13 4/67/13 51/70/13 142/70/13 
usemtl 01___Default
f 85/48/1 87/51/1 86/49/1 
f 88/53/1 90/56/1 89/54/1 
f 58/2/1 60/5/1 59/3/1 
f 91/58/1 93/61/1 92/59/1 
f 94/63/1 96/66/1 95/64/1 
f 61/8/1 63/11/1 62/9/1 
f 97/68/1 99/71/1 98/69/1 
f 64/13/1 66/16/1 65/14/1 
f 67/18/1 69/21/1 68/19/1 
f 70/23/1 72/26/1 71/24/1 
f 73/28/1 75/31/1 74/29/1 
f 76/33/1 78/36/1 77/34/1 
f 79/38/1 81/41/1 80/39/1 
f 82/43/1 84/46/1 83/44/1 
# 126 polygons - 28 triangles

