# 3ds Max Wavefront OBJ Exporter v0.97b - (c)2007 guruware
# File Created: 31.05.2018 17:52:16

mtllib toma_aire3.mtl

#
# object body
#

v  -1.1838 81.5816 127.4570
v  -1.1161 89.1418 127.4427
v  -17.5011 89.5108 127.0866
v  -17.4802 81.9486 127.1028
v  -33.8806 88.9453 126.7348
v  -33.7712 81.3861 126.7529
v  -34.3449 88.1497 101.9522
v  -34.9617 89.9057 130.0180
v  -17.5785 90.5060 130.3913
v  -16.9616 88.7499 102.3255
v  0.3126 80.4693 102.7181
v  0.4275 88.3583 102.7034
v  -0.1894 90.1143 130.7692
v  -0.2946 80.5945 130.7914
v  -16.5301 84.7977 83.4466
v  -16.7128 88.0415 91.0034
v  0.6763 87.6499 91.3813
v  0.7214 84.4092 83.8215
v  -33.7757 84.2022 83.0762
v  -34.0960 87.4413 90.6301
v  -34.1844 80.2624 101.9729
v  -1.2554 81.5963 130.7661
v  -17.5518 81.9634 130.4120
v  -17.5460 80.9830 130.4165
v  -1.1877 89.1566 130.7518
v  -17.5727 89.5256 130.3958
v  -33.8428 81.4008 130.0621
v  -34.7917 80.3875 130.0461
v  -33.9522 88.9600 130.0440
# 29 vertices

vn -0.0216 0.0045 0.9998
vn -0.0331 0.9975 -0.0631
vn 0.9995 -0.0234 0.0226
vn 0.0292 0.9188 -0.3937
vn -0.0232 0.9185 -0.3948
vn -0.9987 -0.0458 -0.0205
vn 0.0226 0.9997 -0.0040
vn -0.9996 0.0191 -0.0217
vn -0.0226 -0.9997 0.0040
vn -0.0344 0.9994 -0.0052
vn 0.0344 -0.9994 0.0052
vn 0.9993 0.0310 0.0215
vn 0.0238 0.9978 -0.0619
vn 0.9992 -0.0338 0.0226
vn -0.9992 -0.0354 -0.0206
# 15 vertex normals

vt 0.6839 0.0743 0.0000
vt 0.5420 0.0539 0.0000
vt 0.5416 0.0538 0.0000
vt 0.4584 0.0538 0.0000
vt 0.4580 0.0539 0.0000
vt 0.3161 0.0743 0.0000
vt 0.3056 0.2106 0.0000
vt 0.3056 0.0758 0.0000
vt 0.4608 0.0535 0.0000
vt 0.4608 0.2201 0.0000
vt 0.6944 0.1889 0.0000
vt 0.6944 0.2106 0.0000
vt 0.6944 0.0758 0.0000
vt 0.5392 0.2873 0.0000
vt 0.6944 0.2650 0.0000
vt 0.3056 0.2650 0.0000
vt 0.4608 0.2873 0.0000
vt 0.3056 0.1889 0.0000
vt 0.5392 0.0535 0.0000
vt 0.5392 0.2201 0.0000
# 20 texture coords

g body
usemtl car_body
s off
f 1/1/1 2/1/1 3/2/1 4/3/1 
f 4/4/1 3/5/1 5/6/1 6/6/1 
f 7/7/2 8/8/2 9/9/2 10/10/2 
f 11/11/3 12/12/3 13/13/3 14/13/3 
f 15/14/4 16/14/4 17/15/4 18/15/4 
f 19/16/5 20/16/5 16/17/5 15/17/5 
f 21/18/6 7/7/6 20/16/6 19/16/6 
f 14/13/1 22/1/1 23/3/1 24/19/1 
f 13/13/1 25/1/1 22/1/1 14/13/1 
f 9/19/1 26/2/1 25/1/1 13/13/1 
f 24/9/1 23/4/1 27/6/1 28/8/1 
f 8/8/1 29/6/1 26/5/1 9/9/1 
f 28/8/1 27/6/1 29/6/1 8/8/1 
f 22/1/7 1/1/7 4/3/7 23/3/7 
f 25/1/8 2/1/8 1/1/8 22/1/8 
f 26/2/9 3/2/9 2/1/9 25/1/9 
f 23/4/10 4/4/10 6/6/10 27/6/10 
f 29/6/11 5/6/11 3/5/11 26/5/11 
f 27/6/12 6/6/12 5/6/12 29/6/12 
f 12/12/13 17/15/13 16/14/13 10/20/13 
f 10/10/2 16/17/2 20/16/2 7/7/2 
f 12/12/13 10/20/13 9/19/13 13/13/13 
f 11/11/14 18/15/14 17/15/14 12/12/14 
f 21/18/15 28/8/15 8/8/15 7/7/15 
# 24 polygons

